<?xml version="1.0" encoding="utf-8"?>
<!-- Generator: Adobe Illustrator 24.3.0, SVG Export Plug-In . SVG Version: 6.00 Build 0)  -->
<svg version="1.1" id="Слой_5" xmlns="http://www.w3.org/2000/svg" xmlns:xlink="http://www.w3.org/1999/xlink" x="0px" y="0px"
	 viewBox="0 0 246.9 236.4" style="enable-background:new 0 0 246.9 236.4;" xml:space="preserve">
<style type="text/css">
	.st0{fill:url(#SVGID_1_);}
	.st1{fill:url(#SVGID_2_);}
</style>
<linearGradient id="SVGID_1_" gradientUnits="userSpaceOnUse" x1="309.6535" y1="-349.1938" x2="547.7065" y2="-349.1938" gradientTransform="matrix(1 0 0 -1 -305.24 -233.15)">
	<stop  offset="0" style="stop-color:#3EBCED"/>
	<stop  offset="1" style="stop-color:#403B8F"/>
</linearGradient>
<path class="st0" d="M224.3,154.9c-6.8,0-13.1,3.9-16.1,10l-27.5-12.4c3.1-9.2,4.6-18.8,4.6-28.5c0-2.6-0.1-5-0.3-7.5l8.3,0.2
	l0.3-0.3c0.8,8.1,8,13.9,16.1,13.1c8.1-0.8,13.9-8,13.1-16.1c-0.8-8.1-8-13.9-16.1-13.1c-6.4,0.7-11.6,5.4-12.9,11.7l-9.3-0.2
	c-2.2-16-8.6-31.2-18.7-43.8l43.1-25.5l0.2-0.9c5.2,6.1,14.3,6.8,20.4,1.7c6.1-5.2,6.8-14.3,1.7-20.4c-5.2-6.1-14.3-6.8-20.4-1.7
	c-4.9,4.1-6.4,11-3.9,16.8L162.6,64c-33.1-37.4-90.3-40.9-127.7-7.8C-2.5,89.4-6,146.6,27.1,184c33.1,37.4,90.3,40.9,127.7,7.8
	c10.7-9.5,19-21.3,24.2-34.6l27.3,12.4l0.4-0.3c-0.3,1.2-0.4,2.5-0.4,3.7c0,10,8.1,18,18,18s18-8.1,18-18s-8.1-18-18-18L224.3,154.9
	z M179.3,124.1c0,8.8-1.4,17.6-4.1,26l-35-15.8c4.4-5.3,7.2-11.7,8.1-18.5l30.6,0.6C179.2,118.9,179.4,121.5,179.3,124.1
	L179.3,124.1z M178.4,111.5l-29.6-0.6c0,0,0-0.1,0-0.2c0-9.9-3.9-19.4-11-26.3L160.4,71C169.9,82.6,176.2,96.6,178.4,111.5
	L178.4,111.5z M95.4,207.9c-46.3,0-83.9-37.5-83.9-83.8c0-46.3,37.5-83.9,83.8-83.9c23.4,0,45.8,9.8,61.7,27L133.8,81
	c-16.4-12.2-39.6-8.8-51.8,7.6c-12.2,16.4-8.8,39.6,7.6,51.8c4.2,3.1,8.9,5.3,14,6.4l2.2,24.9c-6,2-9.2,8.5-7.2,14.5
	c2,6,8.5,9.2,14.5,7.2c6-2,9.2-8.5,7.2-14.5c-1.6-4.7-5.9-7.8-10.9-7.8c-0.4,0-0.7,0-1.1,0l-2.2-23.9c1.9,0.3,3.7,0.4,5.6,0.4
	c9.3,0,18.2-3.5,25-9.7l36.8,16.7C161,186.8,130,207.9,95.4,207.9z"/>
<linearGradient id="SVGID_2_" gradientUnits="userSpaceOnUse" x1="361.9603" y1="-309.4153" x2="388.8453" y2="-309.4153" gradientTransform="matrix(1 0 0 -1 -305.24 -233.15)">
	<stop  offset="0" style="stop-color:#3EBCED"/>
	<stop  offset="1" style="stop-color:#403B8F"/>
</linearGradient>
<path class="st1" d="M82.4,87.8l1.2-1.7l-9.5-7.7c2.4-4.6,0.6-10.2-4-12.5c-4.6-2.4-10.2-0.6-12.5,4c-2.4,4.6-0.6,10.2,4,12.5
	c4.1,2.1,9.2,0.9,11.9-2.9l-0.1,1L82.4,87.8z"/>
</svg>
