<svg id="Слой_5" data-name="Слой 5" xmlns="http://www.w3.org/2000/svg" xmlns:xlink="http://www.w3.org/1999/xlink" viewBox="0 0 246.88 236.38"><defs><style>.cls-1{font-size:44.28px;fill:#5a595b;font-family:Montserrat-SemiBold, Montserrat;font-weight:600;}.cls-2{font-size:45.17px;font-family:Octava-Regular, Octava;}.cls-2,.cls-3,.cls-4,.cls-5{font-weight:400;}.cls-3,.cls-4,.cls-5{font-family:Montserrat-Regular, Montserrat;}.cls-4{letter-spacing:-0.02em;}.cls-5{letter-spacing:-0.02em;}.cls-6{font-size:17.18px;fill:#b9bcbe;font-family:OpenSans, Open Sans;letter-spacing:0.28em;}.cls-7{fill:url(#Безымянный_градиент_3);}.cls-8{fill:url(#Безымянный_градиент_3-2);}</style><linearGradient id="Безымянный_градиент_3" x1="336.37" y1="547.45" x2="521" y2="547.45" gradientUnits="userSpaceOnUse"><stop offset="0" stop-color="#3ebced"/><stop offset="1" stop-color="#403b8f"/></linearGradient><linearGradient id="Безымянный_градиент_3-2" x1="376.96" y1="516.61" x2="397.82" y2="516.61" xlink:href="#Безымянный_градиент_3"/></defs><text class="cls-1" transform="translate(6.34 206.08)">IT<tspan class="cls-2" x="40.78" y="0"> </tspan><tspan class="cls-3" x="51.3" y="0">Ш</tspan><tspan class="cls-4" x="99.74" y="0">К</tspan><tspan class="cls-5" x="129.71" y="0">О</tspan><tspan class="cls-3" x="166.51" y="0">ЛА</tspan></text><text class="cls-6" transform="translate(0 231.72) scale(0.9 1)">Творим для будущего</text><path class="cls-7" d="M507,577.54a14,14,0,0,0-12.51,7.79l-21.37-9.63a70.16,70.16,0,0,0,3.58-22.14c0-2-.1-3.91-.26-5.84l6.43.12.21-.27a11.39,11.39,0,1,0,.17-3.45l-7.22-.15a69.84,69.84,0,0,0-14.49-34l33.47-19.77.19-.68a11.22,11.22,0,1,0-1.73-2.77L459.1,507.05a70.18,70.18,0,1,0,12.77,72.2l21.2,9.61.32-.26a13.78,13.78,0,0,0-.31,2.9,14,14,0,1,0,14-14Zm-34.93-23.92a64.91,64.91,0,0,1-3.2,20.16l-27.13-12.23a28.57,28.57,0,0,0,6.32-14.38l23.73.46C472,549.6,472.11,551.6,472.11,553.62Zm-.73-9.75-23-.48s0-.1,0-.15a28.62,28.62,0,0,0-8.52-20.41l17.57-10.37A64.66,64.66,0,0,1,471.38,543.87ZM407,618.69a65.07,65.07,0,1,1,47.84-109.16l-18.09,10.65a28.72,28.72,0,1,0-23.43,51.07L415,590.6a8.88,8.88,0,1,0,2.81-.46,8.44,8.44,0,0,0-.87,0l-1.68-18.55a29.83,29.83,0,0,0,4.36.32,28.62,28.62,0,0,0,19.41-7.55l28.57,12.94A65.08,65.08,0,0,1,407,618.69Z" transform="translate(-305.24 -471.15)"/><path class="cls-8" d="M396.9,525.46l.92-1.32-7.36-6a7.21,7.21,0,1,0-.52.85l-.05.74Z" transform="translate(-305.24 -471.15)"/></svg>