<svg id="Слой_1" data-name="Слой 1" xmlns="http://www.w3.org/2000/svg" viewBox="0 0 512.03 511.99"><g id="Page-1"><g id="_003---Call" data-name="003---Call"><path id="Shape" d="M212,300c-48.87-48.87-59.9-97.74-62.39-117.32a17.55,17.55,0,0,1,5-14.69l39.55-39.53a17.67,17.67,0,0,0,2.49-21.85l-63-97.77a17.66,17.66,0,0,0-22.87-6.44L9.77,50A17.56,17.56,0,0,0,.06,67.54c5.3,50.32,27.23,174,148.79,295.57S394.08,506.61,444.42,511.9A17.56,17.56,0,0,0,462,502.19l47.6-101.08a17.65,17.65,0,0,0-6.4-22.84L405.4,315.32a17.67,17.67,0,0,0-21.85,2.47L344,357.34a17.55,17.55,0,0,1-14.69,5C309.75,359.89,260.88,348.86,212,300Z" transform="translate(0.03)"/><path id="Shape-2" data-name="Shape" d="M406.07,273.66A17.66,17.66,0,0,1,388.41,256,132.55,132.55,0,0,0,256,123.59a17.66,17.66,0,1,1,0-35.31A167.9,167.9,0,0,1,423.72,256,17.66,17.66,0,0,1,406.07,273.66Z" transform="translate(0.03)"/><path id="Shape-3" data-name="Shape" d="M494.34,273.66A17.66,17.66,0,0,1,476.69,256C476.55,134.17,377.83,35.45,256,35.31A17.66,17.66,0,1,1,256,0C397.32.16,511.84,114.68,512,256a17.67,17.67,0,0,1-17.66,17.66Z" transform="translate(0.03)"/></g></g></svg>