<svg id="QRCodeGenerate" xmlns="http://www.w3.org/2000/svg" viewBox="0 0 310 310"><defs><style>.cls-1{fill:none;}</style></defs><rect class="cls-1" width="310" height="310"/><path d="M10,10H20V20H10Zm10,0H30V20H20Zm10,0H40V20H30Zm10,0H50V20H40Zm10,0H60V20H50Zm10,0H70V20H60Zm10,0H80V20H70Zm20,0h10V20H90Zm10,0h10V20H100Zm10,0h10V20H110Zm10,0h10V20H120Zm50,0h10V20H170Zm10,0h10V20H180Zm20,0h10V20H200Zm10,0h10V20H210Zm20,0h10V20H230Zm10,0h10V20H240Zm10,0h10V20H250Zm10,0h10V20H260Zm10,0h10V20H270Zm10,0h10V20H280Zm10,0h10V20H290ZM10,20H20V30H10Zm60,0H80V30H70Zm20,0h10V30H90Zm10,0h10V30H100Zm30,0h10V30H130Zm30,0h10V30H160Zm10,0h10V30H170Zm10,0h10V30H180Zm10,0h10V30H190Zm20,0h10V30H210Zm20,0h10V30H230Zm60,0h10V30H290ZM10,30H20V40H10Zm20,0H40V40H30Zm10,0H50V40H40Zm10,0H60V40H50Zm20,0H80V40H70Zm40,0h10V40H110Zm10,0h10V40H120Zm30,0h10V40H150Zm10,0h10V40H160Zm10,0h10V40H170Zm60,0h10V40H230Zm20,0h10V40H250Zm10,0h10V40H260Zm10,0h10V40H270Zm20,0h10V40H290ZM10,40H20V50H10Zm20,0H40V50H30Zm10,0H50V50H40Zm10,0H60V50H50Zm20,0H80V50H70Zm30,0h10V50H100Zm50,0h10V50H150Zm20,0h10V50H170Zm10,0h10V50H180Zm50,0h10V50H230Zm20,0h10V50H250Zm10,0h10V50H260Zm10,0h10V50H270Zm20,0h10V50H290ZM10,50H20V60H10Zm20,0H40V60H30Zm10,0H50V60H40Zm10,0H60V60H50Zm20,0H80V60H70Zm40,0h10V60H110Zm10,0h10V60H120Zm10,0h10V60H130Zm10,0h10V60H140Zm20,0h10V60H160Zm10,0h10V60H170Zm10,0h10V60H180Zm10,0h10V60H190Zm10,0h10V60H200Zm10,0h10V60H210Zm20,0h10V60H230Zm20,0h10V60H250Zm10,0h10V60H260Zm10,0h10V60H270Zm20,0h10V60H290ZM10,60H20V70H10Zm60,0H80V70H70Zm30,0h10V70H100Zm10,0h10V70H110Zm10,0h10V70H120Zm10,0h10V70H130Zm30,0h10V70H160Zm10,0h10V70H170Zm10,0h10V70H180Zm30,0h10V70H210Zm20,0h10V70H230Zm60,0h10V70H290ZM10,70H20V80H10Zm10,0H30V80H20Zm10,0H40V80H30Zm10,0H50V80H40Zm10,0H60V80H50Zm10,0H70V80H60Zm10,0H80V80H70Zm20,0h10V80H90Zm20,0h10V80H110Zm20,0h10V80H130Zm20,0h10V80H150Zm20,0h10V80H170Zm20,0h10V80H190Zm20,0h10V80H210Zm20,0h10V80H230Zm10,0h10V80H240Zm10,0h10V80H250Zm10,0h10V80H260Zm10,0h10V80H270Zm10,0h10V80H280Zm10,0h10V80H290ZM110,80h10V90H110Zm20,0h10V90H130Zm30,0h10V90H160Zm10,0h10V90H170Zm10,0h10V90H180Zm10,0h10V90H190Zm20,0h10V90H210ZM20,90H30v10H20Zm50,0H80v10H70Zm10,0H90v10H80Zm10,0h10v10H90Zm10,0h10v10H100Zm10,0h10v10H110Zm20,0h10v10H130Zm20,0h10v10H150Zm20,0h10v10H170Zm30,0h10v10H200Zm20,0h10v10H220Zm60,0h10v10H280Zm10,0h10v10H290ZM10,100H20v10H10Zm20,0H40v10H30Zm10,0H50v10H40Zm20,0H70v10H60Zm30,0h10v10H90Zm40,0h10v10H130Zm20,0h10v10H150Zm20,0h10v10H170Zm20,0h10v10H190Zm60,0h10v10H250Zm20,0h10v10H270Zm10,0h10v10H280ZM50,110H60v10H50Zm10,0H70v10H60Zm10,0H80v10H70Zm10,0H90v10H80Zm10,0h10v10H90Zm20,0h10v10H110Zm20,0h10v10H130Zm40,0h10v10H170Zm10,0h10v10H180Zm10,0h10v10H190Zm10,0h10v10H200Zm30,0h10v10H230Zm10,0h10v10H240Zm10,0h10v10H250Zm10,0h10v10H260Zm10,0h10v10H270ZM20,120H30v10H20Zm20,0H50v10H40Zm60,0h10v10H100Zm30,0h10v10H130Zm70,0h10v10H200Zm10,0h10v10H210Zm10,0h10v10H220Zm10,0h10v10H230Zm10,0h10v10H240Zm10,0h10v10H250ZM10,130H20v10H10Zm30,0H50v10H40Zm10,0H60v10H50Zm10,0H70v10H60Zm10,0H80v10H70Zm30,0h10v10H100Zm10,0h10v10H110Zm20,0h10v10H130Zm10,0h10v10H140Zm30,0h10v10H170Zm40,0h10v10H210Zm10,0h10v10H220Zm10,0h10v10H230Zm10,0h10v10H240Zm40,0h10v10H280ZM20,140H30v10H20Zm10,0H40v10H30Zm20,0H60v10H50Zm30,0H90v10H80Zm30,0h10v10H110Zm20,0h10v10H130Zm10,0h10v10H140Zm10,0h10v10H150Zm10,0h10v10H160Zm10,0h10v10H170Zm20,0h10v10H190Zm10,0h10v10H200Zm30,0h10v10H230Zm20,0h10v10H250Zm10,0h10v10H260Zm20,0h10v10H280Zm10,0h10v10H290ZM30,150H40v10H30Zm10,0H50v10H40Zm30,0H80v10H70Zm20,0h10v10H90Zm10,0h10v10H100Zm20,0h10v10H120Zm30,0h10v10H150Zm20,0h10v10H170Zm20,0h10v10H190Zm40,0h10v10H230Zm50,0h10v10H280ZM10,160H20v10H10Zm10,0H30v10H20Zm10,0H40v10H30Zm20,0H60v10H50Zm30,0H90v10H80Zm10,0h10v10H90Zm10,0h10v10H100Zm20,0h10v10H120Zm20,0h10v10H140Zm10,0h10v10H150Zm70,0h10v10H220Zm40,0h10v10H260Zm10,0h10v10H270Zm10,0h10v10H280Zm10,0h10v10H290ZM30,170H40v10H30Zm10,0H50v10H40Zm10,0H60v10H50Zm20,0H80v10H70Zm40,0h10v10H110Zm10,0h10v10H120Zm20,0h10v10H140Zm10,0h10v10H150Zm10,0h10v10H160Zm30,0h10v10H190Zm20,0h10v10H210Zm10,0h10v10H220Zm20,0h10v10H240Zm20,0h10v10H260Zm10,0h10v10H270Zm20,0h10v10H290ZM10,180H20v10H10Zm20,0H40v10H30Zm10,0H50v10H40Zm10,0H60v10H50Zm60,0h10v10H110Zm10,0h10v10H120Zm20,0h10v10H140Zm10,0h10v10H150Zm20,0h10v10H170Zm10,0h10v10H180Zm60,0h10v10H240Zm10,0h10v10H250Zm20,0h10v10H270Zm20,0h10v10H290ZM10,190H20v10H10Zm10,0H30v10H20Zm10,0H40v10H30Zm10,0H50v10H40Zm10,0H60v10H50Zm20,0H80v10H70Zm10,0H90v10H80Zm10,0h10v10H90Zm20,0h10v10H110Zm20,0h10v10H130Zm10,0h10v10H140Zm10,0h10v10H150Zm20,0h10v10H170Zm10,0h10v10H180Zm10,0h10v10H190Zm10,0h10v10H200Zm40,0h10v10H240Zm20,0h10v10H260Zm10,0h10v10H270Zm20,0h10v10H290ZM10,200H20v10H10Zm30,0H50v10H40Zm20,0H70v10H60Zm60,0h10v10H120Zm20,0h10v10H140Zm10,0h10v10H150Zm10,0h10v10H160Zm10,0h10v10H170Zm20,0h10v10H190Zm30,0h10v10H220Zm10,0h10v10H230Zm20,0h10v10H250Zm30,0h10v10H280Zm10,0h10v10H290ZM10,210H20v10H10Zm30,0H50v10H40Zm10,0H60v10H50Zm10,0H70v10H60Zm10,0H80v10H70Zm10,0H90v10H80Zm20,0h10v10H100Zm40,0h10v10H140Zm40,0h10v10H180Zm30,0h10v10H210Zm10,0h10v10H220Zm10,0h10v10H230Zm10,0h10v10H240Zm10,0h10v10H250Zm20,0h10v10H270ZM90,220h10v10H90Zm10,0h10v10H100Zm10,0h10v10H110Zm30,0h10v10H140Zm10,0h10v10H150Zm10,0h10v10H160Zm20,0h10v10H180Zm10,0h10v10H190Zm10,0h10v10H200Zm10,0h10v10H210Zm40,0h10v10H250Zm10,0h10v10H260Zm10,0h10v10H270ZM10,230H20v10H10Zm10,0H30v10H20Zm10,0H40v10H30Zm10,0H50v10H40Zm10,0H60v10H50Zm10,0H70v10H60Zm10,0H80v10H70Zm20,0h10v10H90Zm20,0h10v10H110Zm10,0h10v10H120Zm30,0h10v10H150Zm10,0h10v10H160Zm10,0h10v10H170Zm10,0h10v10H180Zm20,0h10v10H200Zm10,0h10v10H210Zm20,0h10v10H230Zm20,0h10v10H250Zm30,0h10v10H280ZM10,240H20v10H10Zm60,0H80v10H70Zm40,0h10v10H110Zm20,0h10v10H130Zm30,0h10v10H160Zm10,0h10v10H170Zm10,0h10v10H180Zm10,0h10v10H190Zm10,0h10v10H200Zm10,0h10v10H210Zm40,0h10v10H250Zm10,0h10v10H260ZM10,250H20v10H10Zm20,0H40v10H30Zm10,0H50v10H40Zm10,0H60v10H50Zm20,0H80v10H70Zm50,0h10v10H120Zm10,0h10v10H130Zm50,0h10v10H180Zm20,0h10v10H200Zm10,0h10v10H210Zm10,0h10v10H220Zm10,0h10v10H230Zm10,0h10v10H240Zm10,0h10v10H250ZM10,260H20v10H10Zm20,0H40v10H30Zm10,0H50v10H40Zm10,0H60v10H50Zm20,0H80v10H70Zm30,0h10v10H100Zm40,0h10v10H140Zm10,0h10v10H150Zm30,0h10v10H180Zm10,0h10v10H190Zm10,0h10v10H200Zm20,0h10v10H220Zm20,0h10v10H240Zm20,0h10v10H260Zm10,0h10v10H270Zm10,0h10v10H280ZM10,270H20v10H10Zm20,0H40v10H30Zm10,0H50v10H40Zm10,0H60v10H50Zm20,0H80v10H70Zm30,0h10v10H100Zm20,0h10v10H120Zm10,0h10v10H130Zm30,0h10v10H160Zm10,0h10v10H170Zm10,0h10v10H180Zm30,0h10v10H210Zm10,0h10v10H220Zm10,0h10v10H230Zm20,0h10v10H250Zm20,0h10v10H270Zm10,0h10v10H280ZM10,280H20v10H10Zm60,0H80v10H70Zm20,0h10v10H90Zm20,0h10v10H110Zm60,0h10v10H170Zm40,0h10v10H210Zm10,0h10v10H220Zm30,0h10v10H250Zm10,0h10v10H260Zm10,0h10v10H270Zm20,0h10v10H290ZM10,290H20v10H10Zm10,0H30v10H20Zm10,0H40v10H30Zm10,0H50v10H40Zm10,0H60v10H50Zm10,0H70v10H60Zm10,0H80v10H70Zm60,0h10v10H130Zm20,0h10v10H150Zm10,0h10v10H160Zm20,0h10v10H180Zm20,0h10v10H200Zm10,0h10v10H210Zm10,0h10v10H220Zm10,0h10v10H230Zm20,0h10v10H250Zm10,0h10v10H260Zm10,0h10v10H270Z"/></svg>